<?xml version="1.0" encoding="UTF-8" standalone="no"?>
<!-- Created with Inkscape (http://www.inkscape.org/) -->

<svg
   xmlns:dc="http://purl.org/dc/elements/1.1/"
   xmlns:cc="http://creativecommons.org/ns#"
   xmlns:rdf="http://www.w3.org/1999/02/22-rdf-syntax-ns#"
   xmlns:svg="http://www.w3.org/2000/svg"
   xmlns="http://www.w3.org/2000/svg"
   xmlns:sodipodi="http://sodipodi.sourceforge.net/DTD/sodipodi-0.dtd"
   xmlns:inkscape="http://www.inkscape.org/namespaces/inkscape"
   width="15"
   height="15"
   id="svg2"
   version="1.1"
   inkscape:version="0.48.2 r9819"
   sodipodi:docname="bullet.svg"
   inkscape:export-filename="/Users/mnachaze/Sites/tdies/assets/bullet.png"
   inkscape:export-xdpi="90"
   inkscape:export-ydpi="90">
  <defs
     id="defs4" />
  <sodipodi:namedview
     id="base"
     pagecolor="#ffffff"
     bordercolor="#666666"
     borderopacity="1.0"
     inkscape:pageopacity="0.0"
     inkscape:pageshadow="2"
     inkscape:zoom="22.4"
     inkscape:cx="6.9873673"
     inkscape:cy="1.9487799"
     inkscape:document-units="px"
     inkscape:current-layer="layer1"
     showgrid="true"
     inkscape:window-width="1395"
     inkscape:window-height="856"
     inkscape:window-x="45"
     inkscape:window-y="0"
     inkscape:window-maximized="1">
    <inkscape:grid
       type="xygrid"
       id="grid2987"
       empspacing="5"
       visible="true"
       enabled="true"
       snapvisiblegridlinesonly="true" />
  </sodipodi:namedview>
  <metadata
     id="metadata7">
    <rdf:RDF>
      <cc:Work
         rdf:about="">
        <dc:format>image/svg+xml</dc:format>
        <dc:type
           rdf:resource="http://purl.org/dc/dcmitype/StillImage" />
        <dc:title></dc:title>
      </cc:Work>
    </rdf:RDF>
  </metadata>
  <g
     inkscape:label="Layer 1"
     inkscape:groupmode="layer"
     id="layer1"
     transform="translate(0,-1037.3622)">
    <path
       sodipodi:type="arc"
       style="fill:#aa0000"
       id="path2985"
       sodipodi:cx="7.34375"
       sodipodi:cy="8.0580359"
       sodipodi:rx="5.3042479"
       sodipodi:ry="5.3120008"
       d="M 12.647998,8.0580359 A 5.3042479,5.3120008 0 1 1 12.647889,8.024035"
       transform="matrix(1.4139611,0,0,1.4118931,-2.8837764,1033.4851)"
       sodipodi:start="0"
       sodipodi:end="6.2767845"
       sodipodi:open="true" />
    <path
       sodipodi:type="arc"
       style="fill:#ff6600"
       id="path2992"
       sodipodi:cx="7.5"
       sodipodi:cy="7.5"
       sodipodi:rx="2.5"
       sodipodi:ry="2.5"
       d="m 10,7.5 a 2.5,2.5 0 1 1 -5.12e-5,-0.016002"
       transform="translate(0,1037.3622)"
       sodipodi:start="0"
       sodipodi:end="6.2767845"
       sodipodi:open="true" />
    <path
       sodipodi:type="spiral"
       style="fill:none;stroke:#000000;stroke-width:1px;stroke-linecap:butt;stroke-linejoin:miter;stroke-opacity:1"
       id="path2998"
       sodipodi:cx="7"
       sodipodi:cy="8"
       sodipodi:expansion="1"
       sodipodi:revolution="3"
       sodipodi:radius="5.8309517"
       sodipodi:argument="-19.879932"
       sodipodi:t0="0"
       d="M 7,8 C 7.1504153,7.749308 7.4121374,8.0790742 7.4166666,8.2500001 7.4289403,8.7131987 6.884478,8.9242695 6.4999997,8.8333331 5.8122583,8.6706694 5.5364703,7.8707353 5.7500003,7.2499996 6.0633642,6.3390449 7.1481592,5.9905379 8.0000005,6.3333337 9.135371,6.7902266 9.5581232,8.1687925 9.0833328,9.2500007 8.4858576,10.610591 6.8097675,11.108173 5.4999992,10.499999 3.9136943,9.76342 3.3409782,7.7878774 4.083334,6.2499991 4.9581747,4.4376626 7.2342924,3.7896277 9.0000011,4.6666675 11.038582,5.6792446 11.762057,8.2566491 10.749999,10.250001 9.6000342,12.514975 6.7208628,13.313977 4.4999987,12.166666 2.0085247,10.879556 1.1339342,7.6982787 2.4166678,5.2499985 3.8407452,2.5319435 7.3243778,1.5817173 10.000002,3.0000012"
       transform="translate(0.91666596,1037.1122)" />
  </g>
</svg>
